<svg xmlns="http://www.w3.org/2000/svg" xmlns:xlink="http://www.w3.org/1999/xlink" width="80" zoomAndPan="magnify" viewBox="0 0 60 60" height="80" preserveAspectRatio="xMidYMid meet" version="1.0"><defs><clipPath id="290890a830"><path d="M 0 5.175781 L 60 5.175781 L 60 53.925781 L 0 53.925781 Z M 0 5.175781 " clip-rule="nonzero"/></clipPath></defs><g clip-path="url(#290890a830)"><path fill="#000000" d="M 52.808594 5.21875 C 49.613281 8.410156 50.414062 15.589844 51.210938 17.980469 C 52.808594 15.589844 52.011719 10.800781 52.808594 5.21875 Z M 56.855469 7.210938 C 52.636719 7.421875 55.105469 21.25 46.417969 21.972656 C 59.199219 23.566406 54.40625 13.195312 58.402344 7.609375 C 57.804688 7.3125 57.289062 7.191406 56.855469 7.210938 Z M 24.695312 7.636719 C 22.4375 8.085938 21.316406 9.660156 20.976562 11.25 C 20.660156 12.722656 20.824219 14.195312 20.851562 15.289062 C 12.820312 16.371094 8.6875 18.453125 5.269531 20.5 C 4.96875 20.6875 4.824219 21.097656 4.9375 21.433594 C 5.050781 21.769531 5.414062 22.003906 5.769531 21.972656 L 47.316406 17.183594 C 47.671875 17.144531 47.980469 16.835938 48.019531 16.480469 C 48.0625 16.125 47.828125 15.757812 47.492188 15.640625 C 41.667969 13.367188 35.875 13.566406 30.414062 14.191406 C 30.363281 12.964844 30.144531 11.414062 29.464844 10.054688 C 28.445312 8.121094 26.644531 7.390625 24.695312 7.636719 Z M 28.015625 10.777344 C 28.554688 11.851562 28.769531 13.300781 28.816406 14.390625 C 26.632812 14.753906 24.605469 14.851562 22.449219 15.089844 C 22.417969 13.917969 22.296875 12.632812 22.523438 11.574219 C 22.78125 10.371094 23.257812 9.554688 24.996094 9.207031 C 26.480469 8.96875 27.34375 9.726562 28.015625 10.777344 Z M 60 13.992188 C 58.402344 16.386719 56.804688 21.972656 53.609375 22.769531 C 57.601562 22.769531 60 19.578125 60 13.992188 Z M 43.273438 16.039062 L 9.863281 19.878906 C 13.285156 18.300781 17.800781 16.949219 25.695312 16.386719 C 31.917969 15.644531 37.417969 14.601562 43.273438 16.039062 Z M 7.269531 24.363281 C 7.269531 25.777344 7.269531 27.351562 7.292969 29 C 6.882812 28.847656 6.445312 28.703125 5.96875 28.578125 C 4.191406 28.140625 2.335938 27.976562 0.675781 28.378906 C 0.269531 28.484375 -0.00390625 28.945312 0.101562 29.351562 C 0.207031 29.753906 0.671875 30.027344 1.074219 29.925781 C 2.476562 29.574219 4.160156 29.75 5.570312 30.125 C 6.253906 30.304688 6.859375 30.527344 7.34375 30.746094 C 7.507812 37.175781 8.117188 45.015625 10.488281 53.308594 C 10.585938 53.640625 10.917969 53.886719 11.261719 53.882812 L 44.820312 53.882812 C 45.125 53.882812 45.417969 53.6875 45.542969 53.410156 C 48.191406 45.589844 48.558594 38.410156 48.738281 30.746094 C 49.222656 30.527344 49.828125 30.304688 50.511719 30.125 C 51.921875 29.75 53.605469 29.574219 55.007812 29.925781 C 55.410156 30.027344 55.875 29.753906 55.980469 29.351562 C 56.085938 28.945312 55.8125 28.484375 55.40625 28.378906 C 53.589844 27.984375 51.792969 28.136719 50.113281 28.578125 C 49.636719 28.703125 49.199219 28.847656 48.789062 29 C 48.816406 27.152344 48.8125 25.503906 48.8125 24.363281 C 48.8125 23.945312 48.433594 23.566406 48.015625 23.566406 L 8.066406 23.566406 C 8.066406 23.582031 7.269531 23.582031 7.269531 24.363281 Z M 8.890625 25.164062 L 47.191406 25.164062 C 46.707031 34.375 47.214844 43.527344 44.246094 52.285156 L 11.910156 52.285156 C 9.011719 41.808594 8.894531 32.171875 8.890625 25.164062 Z M 8.890625 25.164062 " fill-opacity="1" fill-rule="nonzero"/></g></svg>